<svg xmlns="http://www.w3.org/2000/svg" viewBox="0 0 1600 666.14"><defs><style>.cls-1{fill:#2b2b2b;}.cls-2{fill:#e05363;}.cls-3,.cls-8,.cls-9{font-size:30px;}.cls-3,.cls-8{font-family:IBMPlexSans, IBM Plex Sans;}.cls-4{letter-spacing:-0.01em;}.cls-5{letter-spacing:0em;}.cls-6{letter-spacing:0em;}.cls-7{letter-spacing:-0.01em;}.cls-8,.cls-9{fill:#fff;}.cls-9{font-family:MyriadPro-Regular, Myriad Pro;}</style></defs><title>deleted_percent</title><g id="Livello_2" data-name="Livello 2"><g id="fb_first"><rect class="cls-1" y="445.73" width="400" height="92"/></g><g id="fb_second"><rect class="cls-1" x="550" y="106.73" width="400" height="431"/></g><g id="fb_third"><rect class="cls-1" x="1100" y="60.73" width="400" height="477"/></g><g id="fb_first_deleted"><rect class="cls-2" x="100" y="511.73" width="400" height="26"/></g><g id="fb_second_deleted"><rect class="cls-2" x="650" y="250.73" width="400" height="287"/></g><g id="fb_third_deleted"><rect class="cls-2" x="1200" y="156.73" width="400" height="381"/></g><g id="fb_text"><text class="cls-3" transform="translate(152.85 586.47)">1<tspan class="cls-4" x="18" y="0">s</tspan><tspan x="32.4" y="0">t Moni</tspan><tspan class="cls-5" x="115.71" y="0">t</tspan><tspan class="cls-6" x="126.12" y="0">oring</tspan></text><text class="cls-3" transform="translate(698.59 586.47)">2nd Moni<tspan class="cls-5" x="125.22" y="0">t</tspan><tspan x="135.63" y="0">oring</tspan></text><text class="cls-3" transform="translate(1251.2 586.47)">3<tspan class="cls-7" x="18" y="0">r</tspan><tspan x="28.83" y="0">d Moni</tspan><tspan class="cls-5" x="119.01" y="0">t</tspan><tspan x="129.42" y="0">oring</tspan></text><text class="cls-3" transform="translate(601.67 640.47)">fa<tspan class="cls-7" x="25.74" y="0">c</tspan><tspan x="40.65" y="0">ebook (2951 notifications)</tspan></text></g><g id="fb_text_quote"><text class="cls-8" transform="translate(264.02 535.47)">2,6%</text><text class="cls-8" transform="translate(805.02 402.47)">28,7%</text><text class="cls-9" transform="translate(1361.93 361.57)">38,1%</text><text class="cls-8" transform="translate(706.02 189.47)">43,1%</text><text class="cls-8" transform="translate(1256.02 119.47)">47,7%</text><text class="cls-8" transform="translate(164.02 483.47)">9,2%</text></g><g id="fb_text_quantity"><text class="cls-3" transform="translate(173 425.47)">270</text><text class="cls-3" transform="translate(714 95.47)">1273</text><text class="cls-3" transform="translate(1264 25.47)">1408</text></g></g></svg>